<svg id="Layer_1" data-name="Layer 1" xmlns="http://www.w3.org/2000/svg" viewBox="0 0 211.45 79"><defs><style>.cls-1{fill:#fdfefe;}.cls-2{fill:#f37b69;}.cls-3{fill:#184d67;}.cls-4{fill:#053f5b;}.cls-5{fill:#043e5a;}.cls-6{fill:#043f5a;}.cls-7{fill:#06405b;}.cls-8{fill:#134a64;}.cls-9{fill:#174d66;}.cls-10{fill:#104862;}.cls-11{fill:#1b5069;}.cls-12{fill:#124963;}.cls-13{fill:#154b65;}.cls-14{fill:#154c65;}.cls-15{fill:#0f4762;}.cls-16{fill:#1c516a;}.cls-17{fill:#21556d;}.cls-18{fill:#023d59;}.cls-19{fill:#25576f;}.cls-20{fill:#f4f6f7;}.cls-21{fill:#fdfdfd;}.cls-22{fill:#ebeff2;}.cls-23{fill:#fafbfb;}.cls-24{fill:#e6ecee;}.cls-25{fill:#f6f8f9;}</style></defs><title>Boomi_DellLogo_Jan2020</title><path class="cls-1" d="M156.86,76.88H2V2H208.88v9.3c-.1-.25-.2-.49-.29-.75A4.71,4.71,0,1,0,205,16.63c2.1-.38,3.11-1.88,3.88-3.65v63.9H157.57c1-.33,2-.65,2.05-1.92,0-1.11,0-2.22,0-3.33,0-.22-.21-.57-.37-.6a11.23,11.23,0,0,0-1.84-.14,2,2,0,0,0-2,2c0,1.67,1.2,2.45,3.08,2l.24.21c-.65,1.31-1.73.69-2.68.58C155.38,76.73,156.66,76.41,156.86,76.88ZM141.51,28.14c0-1.87,0-3.46,0-5.05,0-1.33-.53-1.64-1.71-1-1.59.9-3.14,1.89-4.77,2.73a2,2,0,0,0-1.17,2.08c0,8.42,0,16.84,0,25.25,0,2.12,0,4.23,0,6.34,0,1.41.21,1.61,1.57,1.62h4.44c1.47,0,1.58-.12,1.58-1.55,0-6.38,0-12.77.06-19.15.08-5,3-8.28,7.93-9.15,5.25-.94,9.22,1.74,10.18,6.92a18.38,18.38,0,0,1,.2,3c0,6.19,0,12.37,0,18.55,0,1,.32,1.46,1.38,1.42,1.56,0,3.12,0,4.68,0s1.55-.1,1.55-1.58c0-6.42-.05-12.84,0-19.26a8.33,8.33,0,0,1,5.14-8.09c3.53-1.55,7.09-1.68,10.27.88,2.3,1.85,2.91,4.51,2.93,7.29,0,6.35,0,12.69,0,19,0,1.68.05,1.73,1.78,1.73,1.44,0,2.88-.06,4.31,0,1.16.05,1.54-.39,1.53-1.53,0-7.06,0-14.12,0-21.18,0-7.89-4.52-13.14-12.3-14.28-5.4-.79-10.23.52-14.09,4.6-.53.56-1,1.18-1.53,1.79C160.71,21.29,146.81,20.85,141.51,28.14ZM9.85,27.86V14.29c0-3.55,0-7.1,0-10.65,0-1.43-.55-1.74-1.77-1.06C6.38,3.53,4.66,4.47,3,5.51a1.8,1.8,0,0,0-.76,1.28q-.06,26,0,52c0,.92.31,1.32,1.24,1.31,1.68,0,3.36,0,5,0,.93,0,1.31-.41,1.29-1.3s0-1.8,0-2.81c10,8.38,23.22,4.64,28.52-2a19.64,19.64,0,0,0-.52-24.78C31.94,22.51,19.42,19.94,9.85,27.86Zm56.8,33C79.19,61,88,50.43,85.68,38.14,84,29.44,76.75,23.37,67.55,23c-12.54-.51-21.82,9.71-20,22C49,54.33,56.78,60.83,66.65,60.9Zm43.15,0c11,0,19.36-8.17,19.37-18.93s-8.34-19-19.32-19-19.4,8.14-19.41,18.88C90.44,52.77,98.71,60.9,109.8,60.91Zm90.56-19.43v17.1c0,1.44.12,1.54,1.59,1.55s3.11,0,4.67,0c.88,0,1.31-.31,1.31-1.26q0-17.33,0-34.66c0-.95-.41-1.26-1.31-1.24-1.59,0-3.19.07-4.78,0-1.2-.07-1.5.43-1.5,1.54C200.38,30.17,200.36,35.83,200.36,41.48ZM174.35,75c1,0,2,0,2.9,0a1.6,1.6,0,0,0,1.35-2.48,1.49,1.49,0,0,1-.15-1,1.59,1.59,0,0,0-1.38-2.16c-.89-.08-1.79,0-2.72,0Zm-71.83-5.6v5.57c1.69,0,3.46.48,4.57-1.28a2.64,2.64,0,0,0-.07-3.13C105.86,68.9,104.17,69.34,102.52,69.37Zm-3.12,5.7.16-.28c-.67-1.62-1.32-3.24-2-4.84a1,1,0,0,0-.73-.58,1,1,0,0,0-.74.55c-.72,1.63-1.37,3.29-2.18,5.23.58-.24,1-.28,1.2-.52a2.14,2.14,0,0,1,3.42,0C98.69,74.83,99.1,74.91,99.4,75.07Zm37.21,0,.57-.34a14.33,14.33,0,0,0-.81-3.46c-.21-.41-1.43-.31-2.33-.46V69.18c-.86.17-1.14,2-.81,5.15,0,.26.35.49.53.74l.34-.19a8.8,8.8,0,0,1,.05-2.12c.09-.38.64-.66,1-1,.3.34.73.63.86,1a12.79,12.79,0,0,1,.06,1.53C136.1,74.62,136.42,74.85,136.61,75.11Zm-8.8-1.72c0-1.62-.67-2.41-1.88-2.41a2,2,0,0,0-2.06,2c0,1.3,1,2.11,2.53,2,1-.06,1.12-.19,1.06-1-.9.12-1.9.64-2.71-.67Zm-15.41,0c.17-1.45-.48-2.33-1.7-2.4A2.06,2.06,0,0,0,108.53,73c0,1.36,1.21,2.18,2.83,2,.84-.12.88-.18.72-1-1.65.46-2,.37-2.42-.66ZM194,75.14c.43-.22.88-.36.87-.46-.12-1.12.06-2.56-.58-3.24s-2-.38-3.1-.52v4l.31.15c.15-.23.4-.46.43-.71a8.06,8.06,0,0,1,.09-1.65,1.44,1.44,0,0,1,1-.86c.32,0,.81.56.91,1A11.49,11.49,0,0,1,194,75.14Zm-48.87-4.25a2,2,0,0,0-2.11,2,2.11,2.11,0,0,0,2.1,2.14,2,2,0,0,0,2.09-2A2,2,0,0,0,145.09,70.89ZM166.54,74c-.95.17-2,.68-2.79-.75h3.07c.06-1.43-.64-2.29-1.83-2.31a2.1,2.1,0,0,0-2.11,2,2.07,2.07,0,0,0,2.29,2C166.34,75,166.54,74.87,166.54,74Zm17.08-1.35-.1,0a5.12,5.12,0,0,0,0-1,2.74,2.74,0,0,0-.4-.7,2.21,2.21,0,0,0-.4.69,4.82,4.82,0,0,0,0,1.07c0,.7-.12,1.36-.93,1.4s-1-.6-1-1.31a9.73,9.73,0,0,0,0-1.43c0-.16-.28-.34-.46-.39s-.39.2-.39.31a10.83,10.83,0,0,0,.23,2.81,1.93,1.93,0,0,0,1.46,1,2.19,2.19,0,0,0,1.59-.77C183.54,74,183.5,73.25,183.62,72.68Zm16.14.66c.05-1.54-.62-2.37-1.82-2.38a2,2,0,0,0-2.05,2,1.91,1.91,0,0,0,2.23,2c.62,0,1.44.13,1.47-1-1,.15-2.07.69-2.84-.69Zm-58.1,1.74c.7-3.94-.06-4.71-3.43-3.88-.24,3.55-.21,3.69.89,3.68a8.22,8.22,0,0,1,0-2,1.64,1.64,0,0,1,.94-1.06c.66-.17,1,.33.95,1a6.11,6.11,0,0,0,0,1.42C141.15,74.56,141.46,74.81,141.66,75.08Zm-20.3-4.87v4.68l.35.19c.2-.27.56-.53.57-.81.06-1.34,0-2.68,0-4l1.76-.09c-.09-.9-.86-1.07-3.86-.81-.27,0-.52.35-.77.54l.19.34ZM184.64,74c.19,1.37,1.21,1,1.81.91a2,2,0,0,0,1.32-1c.29-.75-.39-1.09-1.05-1.29l-1.22-.39.05-.38h1.95l.18-.34c-.26-.2-.5-.53-.79-.58-.84-.14-1.87-.18-2.17.77-.6,1.9,1.56,1.27,2.4,2.33Zm19.1-2.18c-.23-1.25-1.15-1.06-1.72-.91s-.89.72-1.33,1.1a11.54,11.54,0,0,0,1.2,1.22,4.43,4.43,0,0,0,1.16.48l-.07.34h-2.11c0,.86.25,1,1.52.93.74,0,1.36-.22,1.49-1s-.48-1.17-1.17-1.37c-.38-.11-.74-.25-1.11-.37l.06-.37Zm-51.36-1a2.06,2.06,0,0,0,0,4.12,2,2,0,0,0,2.08-2A2,2,0,0,0,152.38,70.89Zm52.54,3.17-.24.41a3.62,3.62,0,0,0,1.09.52c.78.09,1.78.18,2-.77.55-1.9-1.57-1.29-2.45-2.37l2.2-.14c0-.74-.51-1.08-1.61-.76-.49.15-.86.75-1.28,1.15a9,9,0,0,0,1.14,1.16,4.72,4.72,0,0,0,1.23.44l-.06.36Zm-37,0-.21.23c.25.22.48.6.75.64.89.13,2.05.36,2.37-.76.55-1.88-1.59-1.25-2.47-2.34l2.42-.13c-.22-1.11-1.14-.91-1.72-.76s-.91.7-1.35,1.07a10,10,0,0,0,1.19,1.24,4.14,4.14,0,0,0,1.19.45l-.08.36ZM132,71.5c0-.54-.1-.62-1.12-.61A2,2,0,0,0,128.67,73a2.09,2.09,0,0,0,2.55,2c.56,0,1.16-.07,1-.62a11.63,11.63,0,0,1-2.32-.77,1.36,1.36,0,0,1-.06-1.24A11.67,11.67,0,0,1,132,71.5Zm17.2-2.17-.35-.29c-.18.26-.53.51-.53.77-.06,1.51-.06,3,0,4.54,0,.24.42.47.65.7l.23-.24Zm-33.34,5.54.4.22c.15-.28.42-.56.43-.85.05-1.46.05-2.93,0-4.39,0-.26-.37-.51-.57-.77l-.25.23Zm73.8,0V71l-.67-.14a12.16,12.16,0,0,0-.18,3.26C188.79,74.67,188.82,75.18,189.68,74.9Zm-75.22-2.79c0-.75,0-1.51,0-2.26,0-.23-.27-.44-.41-.66-.12.2-.35.4-.35.6,0,1.54,0,3.09,0,4.63,0,.18.27.36.41.54.12-.2.34-.39.35-.59C114.48,73.62,114.46,72.86,114.46,72.11Zm47.13,3,.28-.3c0-1.07,0-2.14,0-3.21,0-.22-.31-.42-.47-.63-.14.18-.4.37-.41.56a27.1,27.1,0,0,0,0,3C161,74.69,161.38,74.87,161.59,75.07Z"/><path class="cls-2" d="M208.88,13c-.77,1.77-1.78,3.27-3.88,3.65a4.69,4.69,0,1,1,3.59-6.08c.09.26.19.5.29.75Z"/><path class="cls-3" d="M156.86,76.88c-.2-.47-1.48-.15-.86-1.22.95.11,2,.73,2.68-.58,0-.1,0-.21,0-.31l-.26.1c-1.88.48-3.09-.3-3.08-2a2,2,0,0,1,2-2,11.23,11.23,0,0,1,1.84.14c.16,0,.36.38.37.6,0,1.11,0,2.22,0,3.33-.06,1.27-1.07,1.59-2.05,1.92Zm.87-5.34-.55,0c-.3.47-.78.91-.86,1.42a1,1,0,0,0,1.21,1.2c.47-.11,1.13-.75,1.14-1.18S158.07,72,157.73,71.54Z"/><path class="cls-4" d="M141.51,28.14c5.3-7.29,19.2-6.85,24,1.41.52-.61,1-1.23,1.53-1.79,3.86-4.08,8.69-5.39,14.09-4.6,7.78,1.14,12.25,6.39,12.3,14.28.05,7.06,0,14.12,0,21.18,0,1.14-.37,1.58-1.53,1.53-1.43-.08-2.87,0-4.31,0-1.73,0-1.78-.05-1.78-1.73,0-6.34,0-12.68,0-19,0-2.78-.63-5.44-2.93-7.29-3.18-2.56-6.74-2.43-10.27-.88a8.33,8.33,0,0,0-5.14,8.09c-.08,6.42,0,12.84,0,19.26,0,1.48-.09,1.57-1.55,1.58s-3.12,0-4.68,0c-1.06,0-1.38-.4-1.38-1.42,0-6.18,0-12.36,0-18.55a18.38,18.38,0,0,0-.2-3c-1-5.18-4.93-7.86-10.18-6.92-4.89.87-7.85,4.19-7.93,9.15-.1,6.38-.05,12.77-.06,19.15,0,1.43-.11,1.54-1.58,1.55h-4.44c-1.36,0-1.56-.21-1.57-1.62,0-2.11,0-4.22,0-6.34,0-8.41,0-16.83,0-25.25A2,2,0,0,1,135,24.84c1.63-.84,3.18-1.83,4.77-2.73,1.18-.66,1.7-.35,1.71,1C141.52,24.68,141.51,26.27,141.51,28.14Z"/><path class="cls-5" d="M9.85,27.86c9.57-7.92,22.09-5.35,27.93,1.35A19.64,19.64,0,0,1,38.3,54C33,60.67,19.81,64.41,9.78,56c0,1,0,1.91,0,2.81s-.36,1.32-1.29,1.3c-1.68,0-3.36,0-5,0-.93,0-1.24-.39-1.24-1.31q0-26,0-52A1.8,1.8,0,0,1,3,5.51c1.65-1,3.37-2,5.07-2.93C9.3,1.9,9.84,2.21,9.85,3.64c0,3.55,0,7.1,0,10.65ZM23.22,53.74c5.93.41,11.26-4.66,11.71-11.13a11.64,11.64,0,0,0-10.71-12.5,11.84,11.84,0,1,0-1,23.63Z"/><path class="cls-6" d="M66.65,60.9C56.78,60.83,49,54.33,47.57,45c-1.84-12.31,7.44-22.53,20-22,9.2.37,16.48,6.44,18.13,15.14C88,50.43,79.19,61,66.65,60.9Zm.07-7.12a11.56,11.56,0,0,0,11.78-12A11.79,11.79,0,1,0,54.92,42,11.56,11.56,0,0,0,66.72,53.78Z"/><path class="cls-5" d="M109.8,60.91c-11.09,0-19.36-8.14-19.36-19,0-10.74,8.39-18.9,19.41-18.88s19.33,8.22,19.32,19S120.8,60.92,109.8,60.91ZM98.08,41.83a11.77,11.77,0,1,0,23.53.25c0-6.94-5.13-12.37-11.77-12.29A11.68,11.68,0,0,0,98.08,41.83Z"/><path class="cls-7" d="M200.36,41.48c0-5.65,0-11.31,0-17,0-1.11.3-1.61,1.5-1.54,1.59.08,3.19,0,4.78,0,.9,0,1.31.29,1.31,1.24q0,17.33,0,34.66c0,.95-.43,1.27-1.31,1.26-1.56,0-3.12,0-4.67,0s-1.59-.11-1.59-1.55Z"/><path class="cls-8" d="M174.35,75V69.34c.93,0,1.83-.07,2.72,0a1.59,1.59,0,0,1,1.38,2.16,1.49,1.49,0,0,0,.15,1A1.6,1.6,0,0,1,177.25,75C176.31,75,175.35,75,174.35,75Zm1-.85a8.69,8.69,0,0,0,1.79,0c.3-.07.54-.47.8-.72-.28-.27-.52-.71-.85-.79a7.19,7.19,0,0,0-1.74,0Zm0-2.22c.8-.19,1.46-.33,2.1-.55a1.18,1.18,0,0,0,0-.74c-.67-.23-1.36-.39-2.14-.59Z"/><path class="cls-9" d="M102.52,69.37c1.65,0,3.34-.47,4.5,1.16a2.64,2.64,0,0,1,.07,3.13c-1.11,1.76-2.88,1.28-4.57,1.28Zm.92,4.72c1.18,0,2.49.4,3-.93a2.91,2.91,0,0,0-.12-2.21c-.63-1.11-1.83-.76-2.9-.71Z"/><path class="cls-10" d="M99.4,75.07c-.3-.16-.71-.24-.89-.48a2.14,2.14,0,0,0-3.42,0c-.19.24-.62.28-1.2.52.81-1.94,1.46-3.6,2.18-5.23a1,1,0,0,1,.74-.55,1,1,0,0,1,.73.58c.7,1.6,1.35,3.22,2,4.84Zm-3.59-2.15h2.1l-1.1-2.51Z"/><path class="cls-11" d="M136.61,75.11c-.19-.26-.51-.49-.56-.77a12.79,12.79,0,0,0-.06-1.53c-.13-.4-.56-.69-.86-1-.34.32-.89.6-1,1a8.8,8.8,0,0,0-.05,2.12l-.34.19c-.18-.25-.5-.48-.53-.74-.33-3.13,0-5,.81-5.15v1.67c.9.15,2.12.05,2.33.46a14.33,14.33,0,0,1,.81,3.46Z"/><path class="cls-12" d="M127.81,73.39h-3.06c.81,1.31,1.81.79,2.71.67.06.77-.09.9-1.06,1-1.51.09-2.52-.72-2.53-2a2,2,0,0,1,2.06-2C127.14,71,127.82,71.77,127.81,73.39Zm-3-.89h2.11C126.33,71.36,125.76,71.34,124.82,72.5Z"/><path class="cls-12" d="M112.4,73.37h-2.74c.4,1,.77,1.12,2.42.66.16.78.12.84-.72,1-1.62.22-2.8-.6-2.83-2A2.06,2.06,0,0,1,110.7,71C111.92,71,112.57,71.92,112.4,73.37Zm-2.89-1.19.13.33h1.91c-.18-.45-.5-.82-.81-.81A3.69,3.69,0,0,0,109.51,72.18Z"/><path class="cls-13" d="M194,75.14a11.49,11.49,0,0,0,0-2.33c-.1-.4-.59-1-.91-1a1.44,1.44,0,0,0-1,.86,8.06,8.06,0,0,0-.09,1.65c0,.25-.28.48-.43.71l-.31-.15v-4c1.06.14,2.53-.09,3.1.52s.46,2.12.58,3.24C194.84,74.78,194.39,74.92,194,75.14Z"/><path class="cls-14" d="M145.09,70.89A2,2,0,0,1,147.17,73a2,2,0,0,1-2.09,2,2.11,2.11,0,0,1-2.1-2.14A2,2,0,0,1,145.09,70.89Zm1.48,2.35V72.7c-.46-.31-.89-.82-1.4-.9A1,1,0,0,0,144,73a1.72,1.72,0,0,0,1.2,1.1C145.61,74.16,146.1,73.56,146.57,73.24Z"/><path class="cls-12" d="M166.54,74c0,.84-.2,1-1.37,1a2.07,2.07,0,0,1-2.29-2A2.1,2.1,0,0,1,165,71c1.19,0,1.89.88,1.83,2.31h-3.07C164.52,74.71,165.59,74.2,166.54,74ZM164,72.47H166C165.24,71.33,164.7,71.34,164,72.47Z"/><path class="cls-9" d="M183.62,72.68c-.12.57-.08,1.27-.41,1.67a2.19,2.19,0,0,1-1.59.77,1.93,1.93,0,0,1-1.46-1,10.83,10.83,0,0,1-.23-2.81c0-.11.29-.33.39-.31s.44.23.46.39a9.73,9.73,0,0,1,0,1.43c0,.71.17,1.35,1,1.31s1-.7.93-1.4a4.82,4.82,0,0,1,0-1.07,2.21,2.21,0,0,1,.4-.69,2.74,2.74,0,0,1,.4.7,5.12,5.12,0,0,1,0,1Z"/><path class="cls-15" d="M199.76,73.34h-3c.77,1.38,1.81.84,2.84.69,0,1.1-.85,1-1.47,1a1.91,1.91,0,0,1-2.23-2,2,2,0,0,1,2.05-2C199.14,71,199.81,71.8,199.76,73.34Zm-.87-.81.18-.3c-.37-.2-.73-.54-1.09-.54a3.34,3.34,0,0,0-1.18.53l.14.31Z"/><path class="cls-9" d="M141.66,75.08c-.2-.27-.51-.52-.58-.82a6.11,6.11,0,0,1,0-1.42c0-.68-.29-1.18-.95-1a1.64,1.64,0,0,0-.94,1.06,8.22,8.22,0,0,0,0,2c-1.1,0-1.13-.13-.89-3.68C141.6,70.37,142.36,71.14,141.66,75.08Z"/><path class="cls-16" d="M121.36,70.21h-1.73l-.19-.34c.25-.19.5-.51.77-.54,3-.26,3.77-.09,3.86.81l-1.76.09c0,1.36,0,2.7,0,4,0,.28-.37.54-.57.81l-.35-.19Z"/><path class="cls-12" d="M184.64,74h2.48c-.84-1.06-3-.43-2.4-2.33.3-.95,1.33-.91,2.17-.77.29,0,.53.38.79.58l-.18.34h-1.95l-.05.38,1.22.39c.66.2,1.34.54,1.05,1.29a2,2,0,0,1-1.32,1C185.85,75.05,184.83,75.41,184.64,74Z"/><path class="cls-14" d="M203.74,71.86h-2.08l-.06.37c.37.12.73.26,1.11.37.69.2,1.3.49,1.17,1.37s-.75,1-1.49,1c-1.27,0-1.49-.07-1.52-.93H203l.07-.34a4.43,4.43,0,0,1-1.16-.48,11.54,11.54,0,0,1-1.2-1.22c.44-.38.82-1,1.33-1.1S203.51,70.61,203.74,71.86Z"/><path class="cls-15" d="M152.38,70.89A2,2,0,0,1,154.46,73a2,2,0,0,1-2.08,2,2.06,2.06,0,0,1,0-4.12Zm.26.65h-.52c-.32.5-.92,1-.88,1.5a1.76,1.76,0,0,0,1.23,1.1,1,1,0,0,0,1.17-1.27C153.55,72.39,153,72,152.64,71.54Z"/><path class="cls-8" d="M204.92,74.06H207l.06-.36a4.72,4.72,0,0,1-1.23-.44,9,9,0,0,1-1.14-1.16c.42-.4.79-1,1.28-1.15,1.1-.32,1.59,0,1.61.76l-2.2.14c.88,1.08,3,.47,2.45,2.37-.27,1-1.27.86-2,.77a3.62,3.62,0,0,1-1.09-.52Z"/><path class="cls-8" d="M167.94,74.07H170l.08-.36a4.14,4.14,0,0,1-1.19-.45A10,10,0,0,1,167.73,72c.44-.37.84-1,1.35-1.07s1.5-.35,1.72.76l-2.42.13c.88,1.09,3,.46,2.47,2.34-.32,1.12-1.48.89-2.37.76-.27,0-.5-.42-.75-.64Z"/><path class="cls-13" d="M132,71.5a11.67,11.67,0,0,0-2.22.88,1.36,1.36,0,0,0,.06,1.24,11.63,11.63,0,0,0,2.32.77c.2.55-.4.58-1,.62a2.09,2.09,0,0,1-2.55-2,2,2,0,0,1,2.23-2.11C131.92,70.88,132,71,132,71.5Z"/><path class="cls-17" d="M149.22,69.33v5.48l-.23.24c-.23-.23-.64-.46-.65-.7-.06-1.51-.06-3,0-4.54,0-.26.35-.51.53-.77Z"/><path class="cls-17" d="M115.88,74.87V69.31l.25-.23c.2.26.56.51.57.77.06,1.46.06,2.93,0,4.39,0,.29-.28.57-.43.85Z"/><path class="cls-17" d="M189.68,74.9c-.86.28-.89-.23-.85-.8a12.16,12.16,0,0,1,.18-3.26l.67.14Z"/><path class="cls-18" d="M114.46,72.11c0,.75,0,1.51,0,2.26,0,.2-.23.39-.35.59-.14-.18-.4-.36-.41-.54,0-1.54,0-3.09,0-4.63,0-.2.23-.4.35-.6.14.22.39.43.41.66C114.49,70.6,114.46,71.36,114.46,72.11Z"/><path class="cls-19" d="M161.59,75.07c-.21-.2-.6-.38-.61-.59a27.1,27.1,0,0,1,0-3c0-.19.27-.38.41-.56.16.21.46.41.47.63.05,1.07,0,2.14,0,3.21Z"/><path class="cls-20" d="M157.73,71.54c.34.49,1,1,.94,1.46s-.67,1.07-1.14,1.18a1,1,0,0,1-1.21-1.2c.08-.51.56-1,.86-1.42Z"/><path class="cls-1" d="M158.44,74.87l.26-.1c0,.1,0,.21,0,.31Z"/><path class="cls-21" d="M23.22,53.74a11.84,11.84,0,1,1,1-23.63,11.64,11.64,0,0,1,10.71,12.5C34.48,49.08,29.15,54.15,23.22,53.74Z"/><path class="cls-21" d="M66.72,53.78A11.56,11.56,0,0,1,54.92,42a11.79,11.79,0,1,1,23.58-.14A11.56,11.56,0,0,1,66.72,53.78Z"/><path class="cls-21" d="M98.08,41.83a11.68,11.68,0,0,1,11.76-12c6.64-.08,11.78,5.35,11.77,12.29a11.77,11.77,0,1,1-23.53-.25Z"/><path class="cls-22" d="M175.31,74.12V72.54a7.19,7.19,0,0,1,1.74,0c.33.08.57.52.85.79-.26.25-.5.65-.8.72A8.69,8.69,0,0,1,175.31,74.12Z"/><path class="cls-22" d="M175.32,71.9V70c.78.2,1.47.36,2.14.59a1.18,1.18,0,0,1,0,.74C176.78,71.57,176.12,71.71,175.32,71.9Z"/><path class="cls-23" d="M103.44,74.09V70.24c1.07,0,2.27-.4,2.9.71a2.91,2.91,0,0,1,.12,2.21C105.93,74.49,104.62,74.05,103.44,74.09Z"/><path class="cls-24" d="M95.81,72.92l1-2.51,1.1,2.51Z"/><path class="cls-24" d="M124.82,72.5c.94-1.16,1.51-1.14,2.11,0Z"/><path class="cls-24" d="M109.51,72.18a3.69,3.69,0,0,1,1.23-.48c.31,0,.63.36.81.81h-1.91Z"/><path class="cls-25" d="M146.57,73.24c-.47.32-1,.92-1.39.88A1.72,1.72,0,0,1,144,73a1,1,0,0,1,1.19-1.22c.51.08.94.59,1.4.9Z"/><path class="cls-22" d="M164,72.47c.73-1.13,1.27-1.14,2.05,0Z"/><path class="cls-24" d="M198.89,72.53h-1.95l-.14-.31a3.34,3.34,0,0,1,1.18-.53c.36,0,.72.34,1.09.54Z"/><path class="cls-22" d="M152.64,71.54c.35.44.91.85,1,1.34a1,1,0,0,1-1.17,1.27,1.76,1.76,0,0,1-1.23-1.1c0-.47.56-1,.88-1.5Z"/></svg>